<?xml version="1.0" encoding="UTF-8" standalone="no"?>
<!DOCTYPE svg PUBLIC "-//W3C//DTD SVG 1.1//EN"
 "http://www.w3.org/Graphics/SVG/1.1/DTD/svg11.dtd">
<!-- Generated by graphviz version 2.40.1 (20161225.0304)
 -->
<!-- Title: dependencies Pages: 1 -->
<svg width="2154pt" height="284pt"
 viewBox="0.00 0.00 2154.00 284.00" xmlns="http://www.w3.org/2000/svg" xmlns:xlink="http://www.w3.org/1999/xlink">
<g id="graph0" class="graph" transform="scale(1 1) rotate(0) translate(4 280)">
<title>dependencies</title>
<polygon fill="#ffffff" stroke="transparent" points="-4,4 -4,-280 2150,-280 2150,4 -4,4"/>
<text text-anchor="start" x="1052.0091" y="-42.4" font-family="sans-serif" font-weight="bold" font-size="14.00" fill="#000000">Legend</text>
<polygon fill="#ffffb3" stroke="transparent" points="839,-10 839,-30 859,-30 859,-10 839,-10"/>
<text text-anchor="start" x="862.629" y="-15.4" font-family="sans-serif" font-size="14.00" fill="#000000"> &#160;Declarations</text>
<polygon fill="#8dd3c7" stroke="transparent" points="952,-10 952,-30 972,-30 972,-10 952,-10"/>
<text text-anchor="start" x="975.7251" y="-15.4" font-family="sans-serif" font-size="14.00" fill="#000000"> &#160;Module</text>
<polygon fill="#80b1d3" stroke="transparent" points="1038,-10 1038,-30 1058,-30 1058,-10 1038,-10"/>
<text text-anchor="start" x="1061.7812" y="-15.4" font-family="sans-serif" font-size="14.00" fill="#000000"> &#160;Bootstrap</text>
<polygon fill="#fdb462" stroke="transparent" points="1135,-10 1135,-30 1155,-30 1155,-10 1135,-10"/>
<text text-anchor="start" x="1158.6732" y="-15.4" font-family="sans-serif" font-size="14.00" fill="#000000"> &#160;Providers</text>
<polygon fill="#fb8072" stroke="transparent" points="1231,-10 1231,-30 1251,-30 1251,-10 1231,-10"/>
<text text-anchor="start" x="1254.7258" y="-15.4" font-family="sans-serif" font-size="14.00" fill="#000000"> &#160;Exports</text>
<g id="clust1" class="cluster">
<title>cluster_AppModule</title>
<polygon fill="none" stroke="#000000" stroke-dasharray="1,5" points="8,-70 8,-268 2138,-268 2138,-70 8,-70"/>
</g>
<g id="clust2" class="cluster">
<title>cluster_AppModule_declarations</title>
<polygon fill="none" stroke="#000000" points="338,-78 338,-130 2130,-130 2130,-78 338,-78"/>
</g>
<g id="clust15" class="cluster">
<title>cluster_AppModule_imports</title>
<polygon fill="none" stroke="#000000" points="186,-78 186,-130 330,-130 330,-78 186,-78"/>
</g>
<g id="clust17" class="cluster">
<title>cluster_AppModule_bootstrap</title>
<polygon fill="none" stroke="#000000" points="986,-208 986,-260 1110,-260 1110,-208 986,-208"/>
</g>
<g id="clust18" class="cluster">
<title>cluster_AppModule_providers</title>
<polygon fill="none" stroke="#000000" points="16,-78 16,-130 178,-130 178,-78 16,-78"/>
</g>
<!-- AppComponent -->
<g id="node1" class="node">
<title>AppComponent</title>
<polygon fill="#ffffb3" stroke="#000000" points="2121.9399,-122 2016.0601,-122 2016.0601,-86 2121.9399,-86 2121.9399,-122"/>
<text text-anchor="middle" x="2069" y="-99.8" font-family="Times,serif" font-size="14.00" fill="#000000">AppComponent</text>
</g>
<!-- AppModule -->
<g id="node13" class="node">
<title>AppModule</title>
<polygon fill="#8dd3c7" stroke="#000000" points="1089.6571,-187 1086.6571,-191 1065.6571,-191 1062.6571,-187 1006.3429,-187 1006.3429,-151 1089.6571,-151 1089.6571,-187"/>
<text text-anchor="middle" x="1048" y="-164.8" font-family="Times,serif" font-size="14.00" fill="#000000">AppModule</text>
</g>
<!-- AppComponent&#45;&gt;AppModule -->
<g id="edge1" class="edge">
<title>AppComponent&#45;&gt;AppModule</title>
<path fill="none" stroke="#000000" d="M2069,-122.0908C2069,-145.1328 2069,-182 2069,-182 2069,-182 1099.9279,-182 1099.9279,-182"/>
<polygon fill="#000000" stroke="#000000" points="1099.9279,-178.5001 1089.9279,-182 1099.9278,-185.5001 1099.9279,-178.5001"/>
</g>
<!-- BuyFormComponent -->
<g id="node2" class="node">
<title>BuyFormComponent</title>
<polygon fill="#ffffb3" stroke="#000000" points="1998.5028,-122 1863.4972,-122 1863.4972,-86 1998.5028,-86 1998.5028,-122"/>
<text text-anchor="middle" x="1931" y="-99.8" font-family="Times,serif" font-size="14.00" fill="#000000">BuyFormComponent</text>
</g>
<!-- BuyFormComponent&#45;&gt;AppModule -->
<g id="edge2" class="edge">
<title>BuyFormComponent&#45;&gt;AppModule</title>
<path fill="none" stroke="#000000" d="M1931,-122.0449C1931,-143.6623 1931,-177 1931,-177 1931,-177 1099.6993,-177 1099.6993,-177"/>
<polygon fill="#000000" stroke="#000000" points="1099.6993,-173.5001 1089.6993,-177 1099.6992,-180.5001 1099.6993,-173.5001"/>
</g>
<!-- CartComponent -->
<g id="node3" class="node">
<title>CartComponent</title>
<polygon fill="#ffffb3" stroke="#000000" points="1845.9357,-122 1740.0643,-122 1740.0643,-86 1845.9357,-86 1845.9357,-122"/>
<text text-anchor="middle" x="1793" y="-99.8" font-family="Times,serif" font-size="14.00" fill="#000000">CartComponent</text>
</g>
<!-- CartComponent&#45;&gt;AppModule -->
<g id="edge3" class="edge">
<title>CartComponent&#45;&gt;AppModule</title>
<path fill="none" stroke="#000000" d="M1793,-122.2228C1793,-142.3652 1793,-172 1793,-172 1793,-172 1099.9195,-172 1099.9195,-172"/>
<polygon fill="#000000" stroke="#000000" points="1099.9196,-168.5001 1089.9195,-172 1099.9195,-175.5001 1099.9196,-168.5001"/>
</g>
<!-- CommentaryComponent -->
<g id="node4" class="node">
<title>CommentaryComponent</title>
<polygon fill="#ffffb3" stroke="#000000" points="1722.4312,-122 1567.5688,-122 1567.5688,-86 1722.4312,-86 1722.4312,-122"/>
<text text-anchor="middle" x="1645" y="-99.8" font-family="Times,serif" font-size="14.00" fill="#000000">CommentaryComponent</text>
</g>
<!-- CommentaryComponent&#45;&gt;AppModule -->
<g id="edge4" class="edge">
<title>CommentaryComponent&#45;&gt;AppModule</title>
<path fill="none" stroke="#000000" d="M1645,-122.2222C1645,-140.8285 1645,-167 1645,-167 1645,-167 1099.9799,-167 1099.9799,-167"/>
<polygon fill="#000000" stroke="#000000" points="1099.9799,-163.5001 1089.9799,-167 1099.9798,-170.5001 1099.9799,-163.5001"/>
</g>
<!-- CommentaryListComponent -->
<g id="node5" class="node">
<title>CommentaryListComponent</title>
<polygon fill="#ffffb3" stroke="#000000" points="1550.2091,-122 1373.7909,-122 1373.7909,-86 1550.2091,-86 1550.2091,-122"/>
<text text-anchor="middle" x="1462" y="-99.8" font-family="Times,serif" font-size="14.00" fill="#000000">CommentaryListComponent</text>
</g>
<!-- CommentaryListComponent&#45;&gt;AppModule -->
<g id="edge5" class="edge">
<title>CommentaryListComponent&#45;&gt;AppModule</title>
<path fill="none" stroke="#000000" d="M1462,-122.0336C1462,-139.0597 1462,-162 1462,-162 1462,-162 1099.9748,-162 1099.9748,-162"/>
<polygon fill="#000000" stroke="#000000" points="1099.9749,-158.5001 1089.9748,-162 1099.9748,-165.5001 1099.9749,-158.5001"/>
</g>
<!-- FootbarComponent -->
<g id="node6" class="node">
<title>FootbarComponent</title>
<polygon fill="#ffffb3" stroke="#000000" points="1355.3809,-122 1230.6191,-122 1230.6191,-86 1355.3809,-86 1355.3809,-122"/>
<text text-anchor="middle" x="1293" y="-99.8" font-family="Times,serif" font-size="14.00" fill="#000000">FootbarComponent</text>
</g>
<!-- FootbarComponent&#45;&gt;AppModule -->
<g id="edge6" class="edge">
<title>FootbarComponent&#45;&gt;AppModule</title>
<path fill="none" stroke="#000000" d="M1293,-122.2396C1293,-137.5706 1293,-157 1293,-157 1293,-157 1099.8386,-157 1099.8386,-157"/>
<polygon fill="#000000" stroke="#000000" points="1099.8387,-153.5001 1089.8386,-157 1099.8386,-160.5001 1099.8387,-153.5001"/>
</g>
<!-- GamesDetailsComponent -->
<g id="node7" class="node">
<title>GamesDetailsComponent</title>
<polygon fill="#ffffb3" stroke="#000000" points="1212.8557,-122 1053.1443,-122 1053.1443,-86 1212.8557,-86 1212.8557,-122"/>
<text text-anchor="middle" x="1133" y="-99.8" font-family="Times,serif" font-size="14.00" fill="#000000">GamesDetailsComponent</text>
</g>
<!-- GamesDetailsComponent&#45;&gt;AppModule -->
<g id="edge7" class="edge">
<title>GamesDetailsComponent&#45;&gt;AppModule</title>
<path fill="none" stroke="#000000" d="M1071.4502,-122.1061C1071.4502,-122.1061 1071.4502,-140.991 1071.4502,-140.991"/>
<polygon fill="#000000" stroke="#000000" points="1067.9503,-140.9909 1071.4502,-150.991 1074.9503,-140.991 1067.9503,-140.9909"/>
</g>
<!-- GamesListComponent -->
<g id="node8" class="node">
<title>GamesListComponent</title>
<polygon fill="#ffffb3" stroke="#000000" points="1034.9818,-122 893.0182,-122 893.0182,-86 1034.9818,-86 1034.9818,-122"/>
<text text-anchor="middle" x="964" y="-99.8" font-family="Times,serif" font-size="14.00" fill="#000000">GamesListComponent</text>
</g>
<!-- GamesListComponent&#45;&gt;AppModule -->
<g id="edge8" class="edge">
<title>GamesListComponent&#45;&gt;AppModule</title>
<path fill="none" stroke="#000000" d="M1020.5814,-122.1061C1020.5814,-122.1061 1020.5814,-140.991 1020.5814,-140.991"/>
<polygon fill="#000000" stroke="#000000" points="1017.0814,-140.9909 1020.5814,-150.991 1024.0814,-140.991 1017.0814,-140.9909"/>
</g>
<!-- HomeComponent -->
<g id="node9" class="node">
<title>HomeComponent</title>
<polygon fill="#ffffb3" stroke="#000000" points="874.5451,-122 759.4549,-122 759.4549,-86 874.5451,-86 874.5451,-122"/>
<text text-anchor="middle" x="817" y="-99.8" font-family="Times,serif" font-size="14.00" fill="#000000">HomeComponent</text>
</g>
<!-- HomeComponent&#45;&gt;AppModule -->
<g id="edge9" class="edge">
<title>HomeComponent&#45;&gt;AppModule</title>
<path fill="none" stroke="#000000" d="M817,-122.2396C817,-137.5706 817,-157 817,-157 817,-157 996.1676,-157 996.1676,-157"/>
<polygon fill="#000000" stroke="#000000" points="996.1677,-160.5001 1006.1676,-157 996.1676,-153.5001 996.1677,-160.5001"/>
</g>
<!-- LoginComponent -->
<g id="node10" class="node">
<title>LoginComponent</title>
<polygon fill="#ffffb3" stroke="#000000" points="741.2758,-122 626.7242,-122 626.7242,-86 741.2758,-86 741.2758,-122"/>
<text text-anchor="middle" x="684" y="-99.8" font-family="Times,serif" font-size="14.00" fill="#000000">LoginComponent</text>
</g>
<!-- LoginComponent&#45;&gt;AppModule -->
<g id="edge10" class="edge">
<title>LoginComponent&#45;&gt;AppModule</title>
<path fill="none" stroke="#000000" d="M684,-122.0336C684,-139.0597 684,-162 684,-162 684,-162 996.2446,-162 996.2446,-162"/>
<polygon fill="#000000" stroke="#000000" points="996.2446,-165.5001 1006.2446,-162 996.2445,-158.5001 996.2446,-165.5001"/>
</g>
<!-- NavbarComponent -->
<g id="node11" class="node">
<title>NavbarComponent</title>
<polygon fill="#ffffb3" stroke="#000000" points="608.0297,-122 485.9703,-122 485.9703,-86 608.0297,-86 608.0297,-122"/>
<text text-anchor="middle" x="547" y="-99.8" font-family="Times,serif" font-size="14.00" fill="#000000">NavbarComponent</text>
</g>
<!-- NavbarComponent&#45;&gt;AppModule -->
<g id="edge11" class="edge">
<title>NavbarComponent&#45;&gt;AppModule</title>
<path fill="none" stroke="#000000" d="M547,-122.2222C547,-140.8285 547,-167 547,-167 547,-167 996.1467,-167 996.1467,-167"/>
<polygon fill="#000000" stroke="#000000" points="996.1468,-170.5001 1006.1467,-167 996.1467,-163.5001 996.1468,-170.5001"/>
</g>
<!-- SignupComponent -->
<g id="node12" class="node">
<title>SignupComponent</title>
<polygon fill="#ffffb3" stroke="#000000" points="467.5056,-122 346.4944,-122 346.4944,-86 467.5056,-86 467.5056,-122"/>
<text text-anchor="middle" x="407" y="-99.8" font-family="Times,serif" font-size="14.00" fill="#000000">SignupComponent</text>
</g>
<!-- SignupComponent&#45;&gt;AppModule -->
<g id="edge12" class="edge">
<title>SignupComponent&#45;&gt;AppModule</title>
<path fill="none" stroke="#000000" d="M407,-122.2228C407,-142.3652 407,-172 407,-172 407,-172 995.9422,-172 995.9422,-172"/>
<polygon fill="#000000" stroke="#000000" points="995.9422,-175.5001 1005.9422,-172 995.9422,-168.5001 995.9422,-175.5001"/>
</g>
<!-- AppComponent  -->
<g id="node15" class="node">
<title>AppComponent </title>
<polygon fill="#80b1d3" stroke="#000000" points="1102.439,-252 993.561,-252 993.561,-216 1102.439,-216 1102.439,-252"/>
<text text-anchor="middle" x="1048" y="-229.8" font-family="Times,serif" font-size="14.00" fill="#000000">AppComponent </text>
</g>
<!-- AppModule&#45;&gt;AppComponent  -->
<g id="edge14" class="edge">
<title>AppModule&#45;&gt;AppComponent </title>
<path fill="none" stroke="#000000" stroke-dasharray="1,5" d="M1048,-187.1061C1048,-187.1061 1048,-205.991 1048,-205.991"/>
<polygon fill="#000000" stroke="#000000" points="1044.5001,-205.9909 1048,-215.991 1051.5001,-205.991 1044.5001,-205.9909"/>
</g>
<!-- AppRoutingModule -->
<g id="node14" class="node">
<title>AppRoutingModule</title>
<polygon fill="#8dd3c7" stroke="#000000" points="322.2744,-122 319.2744,-126 298.2744,-126 295.2744,-122 193.7256,-122 193.7256,-86 322.2744,-86 322.2744,-122"/>
<text text-anchor="middle" x="258" y="-99.8" font-family="Times,serif" font-size="14.00" fill="#000000">AppRoutingModule</text>
</g>
<!-- AppRoutingModule&#45;&gt;AppModule -->
<g id="edge13" class="edge">
<title>AppRoutingModule&#45;&gt;AppModule</title>
<path fill="none" stroke="#000000" d="M258,-122.0449C258,-143.6623 258,-177 258,-177 258,-177 996.0839,-177 996.0839,-177"/>
<polygon fill="#000000" stroke="#000000" points="996.084,-180.5001 1006.0839,-177 996.0839,-173.5001 996.084,-180.5001"/>
</g>
<!-- AuthInterceptor -->
<g id="node16" class="node">
<title>AuthInterceptor</title>
<ellipse fill="#fdb462" stroke="#000000" cx="97" cy="-104" rx="72.9121" ry="18"/>
<text text-anchor="middle" x="97" y="-99.8" font-family="Times,serif" font-size="14.00" fill="#000000">AuthInterceptor</text>
</g>
<!-- AuthInterceptor&#45;&gt;AppModule -->
<g id="edge15" class="edge">
<title>AuthInterceptor&#45;&gt;AppModule</title>
<path fill="none" stroke="#000000" d="M97,-122.0908C97,-145.1328 97,-182 97,-182 97,-182 996.2179,-182 996.2179,-182"/>
<polygon fill="#000000" stroke="#000000" points="996.218,-185.5001 1006.2179,-182 996.2179,-178.5001 996.218,-185.5001"/>
</g>
</g>
</svg>
